<?xml version="1.0" standalone="no"?><!DOCTYPE svg PUBLIC "-//W3C//DTD SVG 1.1//EN" "http://www.w3.org/Graphics/SVG/1.1/DTD/svg11.dtd"><svg t="1616568572651" class="icon" viewBox="0 0 1024 1024" version="1.1" xmlns="http://www.w3.org/2000/svg" p-id="20104" xmlns:xlink="http://www.w3.org/1999/xlink" width="200" height="200"><defs><style type="text/css"></style></defs><path d="M908.89 89.78H115.11c-28.24 0-51.13 22.89-51.13 51.13v167.48c0 28.24 22.89 51.13 51.13 51.13h13.08V883.1c0 28.24 22.89 51.13 51.13 51.13H844.7c28.24 0 51.13-22.89 51.13-51.13V359.52h13.08c28.24 0 51.13-22.89 51.13-51.13V140.91c-0.02-28.24-22.91-51.13-51.15-51.13zM793.56 831.96H230.44V362.75h563.12v469.21zM166.23 192.04h691.53v65.22H166.23v-65.22z" p-id="20105" fill="#2c2c2c"></path><path d="M382.62 648.48h148.54c-18.24 20.07-17.73 51.1 1.65 70.48 9.98 9.98 23.07 14.98 36.15 14.98 13.09 0 26.17-4.99 36.15-14.98l85.43-85.43a52.14 52.14 0 0 0 3.45-3.82l0.24-0.3c0.97-1.21 1.89-2.45 2.75-3.75 0.11-0.17 0.22-0.35 0.33-0.52 0.8-1.23 1.55-2.5 2.25-3.81 0.1-0.19 0.19-0.37 0.29-0.56 0.67-1.3 1.3-2.64 1.86-4.01 0.06-0.16 0.12-0.32 0.19-0.48 0.56-1.39 1.06-2.81 1.49-4.26 0.04-0.12 0.07-0.24 0.1-0.36 0.43-1.46 0.79-2.95 1.09-4.47 0.02-0.1 0.03-0.19 0.05-0.29 0.29-1.51 0.51-3.04 0.66-4.6 0.01-0.08 0.01-0.17 0.02-0.25 0.14-1.56 0.23-3.13 0.23-4.72s-0.08-3.17-0.23-4.72c-0.01-0.08-0.01-0.17-0.02-0.25a53.6 53.6 0 0 0-0.66-4.6c-0.02-0.1-0.03-0.19-0.05-0.29-0.3-1.52-0.66-3-1.09-4.47-0.03-0.12-0.07-0.24-0.1-0.36-0.43-1.45-0.93-2.87-1.49-4.26-0.06-0.16-0.12-0.32-0.19-0.47-0.56-1.37-1.19-2.7-1.86-4.01-0.1-0.19-0.19-0.37-0.29-0.56-0.69-1.3-1.45-2.57-2.25-3.81-0.11-0.17-0.22-0.35-0.33-0.52-0.86-1.29-1.78-2.54-2.75-3.75l-0.24-0.3c-1.09-1.33-2.24-2.6-3.45-3.82l-85.43-85.43c-19.97-19.97-52.34-19.97-72.31 0-19.38 19.38-19.89 50.41-1.65 70.48H382.62c-28.24 0-51.13 22.89-51.13 51.13s22.89 51.16 51.13 51.16z" p-id="20106" fill="#2c2c2c"></path></svg>