<?xml version="1.0" standalone="no"?><!DOCTYPE svg PUBLIC "-//W3C//DTD SVG 1.1//EN" "http://www.w3.org/Graphics/SVG/1.1/DTD/svg11.dtd"><svg t="1620697415499" class="icon" viewBox="0 0 1024 1024" version="1.1" xmlns="http://www.w3.org/2000/svg" p-id="3835" xmlns:xlink="http://www.w3.org/1999/xlink" width="200" height="200"><defs><style type="text/css"></style></defs><path d="M325.325 131.558H711.09q76.8 0 76.8 76.8v30.567q0 76.8-76.8 76.8H325.325q-76.8 0-76.8-76.8v-30.567q0-76.8 76.8-76.8zM203.904 550.4h0.026q72.345 0 72.345 72.346v197.35q0 72.346-72.345 72.346h-0.026q-72.346 0-72.346-72.346v-197.35q0-72.346 72.346-72.346zM518.374 550.4h0.026q72.346 0 72.346 72.346v197.35q0 72.346-72.346 72.346h-0.026q-72.345 0-72.345-72.346v-197.35q0-72.346 72.345-72.346zM833.229 550.4h0.025q72.346 0 72.346 72.346v197.35q0 72.346-72.346 72.346h-0.025q-72.346 0-72.346-72.346v-197.35q0-72.346 72.346-72.346z" p-id="3836" fill="#707070"></path><path d="M814.029 567.475V462.234h-276.25v105.241h-52.633V462.234H222.029v105.241H169.42V396.518h315.725v-92.16h52.633v92.16h328.883v171.008z" p-id="3837" fill="#707070"></path></svg>