<?xml version="1.0" standalone="no"?><!DOCTYPE svg PUBLIC "-//W3C//DTD SVG 1.1//EN" "http://www.w3.org/Graphics/SVG/1.1/DTD/svg11.dtd"><svg t="1616568502216" class="icon" viewBox="0 0 1024 1024" version="1.1" xmlns="http://www.w3.org/2000/svg" p-id="19079" xmlns:xlink="http://www.w3.org/1999/xlink" width="200" height="200"><defs><style type="text/css"></style></defs><path d="M443.233103 881.11669h137.533794V829.793103H443.233103v51.358897zM237.02069 600.275862l137.533793-0.123586v-46.397793H237.02069V600.275862z m206.212413 141.082483l137.357242 0.406069 0.176552-49.981793H443.233103v49.575724z m-206.212413 139.828965h137.533793V829.793103H237.02069v51.358897z m0.882758-139.687724h136.651035v-49.716965H237.02069z m411.542069-141.241379h137.533793v-46.521379h-137.533793V600.275862zM443.233103 600.275862l137.533794-0.141241v-46.52138H443.233103V600.275862z m206.212414 141.241379l136.474483 0.123587 1.05931-49.840552h-137.533793V741.517241z m0 139.687725h137.533793V829.793103h-137.533793v51.358897zM851.950345 1024H172.049655a101.746759 101.746759 0 0 1-101.517241-101.746759V101.729103A101.764414 101.764414 0 0 1 172.049655-0.017655h679.90069A101.764414 101.764414 0 0 1 953.467586 101.729103v820.506483A101.746759 101.746759 0 0 1 851.950345 1024zM176.64 34.798345c-24.011034 0-71.150345 43.361103-71.150345 67.495724l0.176552 819.941517c0 24.134621 42.195862 66.665931 66.383448 66.665931h679.90069c24.187586 0 66.030345-42.53131 66.030345-66.665931l0.529655-820.506483c0-24.134621-42.372414-66.383448-66.56-66.383448z m564.612414 424.48331H258.56c-34.427586 0-62.49931-20.427034-62.49931-55.013517V171.608276c0-34.586483 29.131034-47.827862 63.55862-47.827862l481.633104-0.547311c34.604138 0 69.208276 13.78869 69.208276 48.375173l1.05931 232.659862c0 34.586483-35.663448 55.013517-70.267586 55.013517zM232.606897 157.484138a5.720276 5.720276 0 0 0-3.884138 6.126345l1.05931 254.322758c0 2.52469-0.529655 5.985103 1.942069 5.985104l543.249655-0.141242c2.471724 0 1.942069-2.913103 1.412414-19.420689l1.05931-240.110345c0-2.542345 1.412414-4.749241-1.05931-4.749241z" p-id="19080"></path></svg>