<?xml version="1.0" standalone="no"?><!DOCTYPE svg PUBLIC "-//W3C//DTD SVG 1.1//EN" "http://www.w3.org/Graphics/SVG/1.1/DTD/svg11.dtd"><svg t="1616560390581" class="icon" viewBox="0 0 1024 1024" version="1.1" xmlns="http://www.w3.org/2000/svg" p-id="3158" xmlns:xlink="http://www.w3.org/1999/xlink" width="200" height="200"><defs><style type="text/css"></style></defs><path d="M855.23456 923.56096c-2.70848 53.6832-73.48736 40.96-109.91616 40.96H121.22624c-22.14912 0-43.45856-3.5584-52.39296-27.97568-3.98848-10.9056-2.07872-25.82528-2.07872-37.21728v-177.40288-453.98016c0-34.41152-8.69376-91.88352 42.70592-91.88352h704.76288c53.08928 0 41.0112 72.43264 41.0112 106.752V923.56096c0 33.01376 51.2 33.01376 51.2 0V219.392c0-42.8544-26.09152-76.17536-65.5616-90.624-14.41792-5.27872-31.6928-3.90656-46.94016-3.90656H164.38784c-51.20512 0-98.9184-4.85376-133.97504 42.02496-23.37792 31.26272-14.86336 88.91904-14.86336 125.5936v620.4928c0 59.76064 39.14752 102.74816 100.16768 102.74816H811.89376c52.89984 0 91.90912-40.31488 94.53056-92.16 1.67424-33.01376-49.53088-32.85504-51.18976 0z" p-id="3159"></path><path d="M170.73664 121.84576c2.70336-53.56544 72.92928-40.96 109.30176-40.96H903.30112c20.864 0 38.9376 1.67424 51.3792 22.15424 6.71744 11.05408 4.54144 28.49792 4.54144 41.05216V774.62528c0 34.7648 9.4976 92.18048-40.96 94.73024-32.85504 1.65888-33.01376 52.864 0 51.2 50.33984-2.53952 92.16-40.45312 92.16-92.60032v-34.84672-190.07488-443.47904-36.93568c0-47.04256-37.36064-90.17344-85.35552-92.60032-35.18976-1.77664-70.74304-0.34304-105.96352-0.34304H228.31104c-7.82336 0-15.60064-0.0512-23.41376 0.34304-49.16736 2.4832-82.9952 45.07648-85.35552 91.81696-1.67424 33.024 49.536 32.86016 51.19488 0.01024z" p-id="3160"></path><path d="M435.39456 339.96288v460.65152c0 33.01376 51.19488 33.01376 51.19488 0V339.96288c0-33.01376-51.19488-33.01376-51.19488 0z" p-id="3161"></path><path d="M230.66624 595.8912h460.65152c33.01376 0 33.01376-51.2 0-51.2H230.66624c-33.01376 0-33.01376 51.2 0 51.2z" p-id="3162"></path></svg>