<?xml version="1.0" standalone="no"?><!DOCTYPE svg PUBLIC "-//W3C//DTD SVG 1.1//EN" "http://www.w3.org/Graphics/SVG/1.1/DTD/svg11.dtd"><svg t="1616560293623" class="icon" viewBox="0 0 1024 1024" version="1.1" xmlns="http://www.w3.org/2000/svg" p-id="2248" xmlns:xlink="http://www.w3.org/1999/xlink" width="200" height="200"><defs><style type="text/css"></style></defs><path d="M1022.074649 809.140491l0-687.493943c0-51.394531-36.133965-88.708368-88.706321-88.708368l-842.73461 0c-63.258743 0-88.709391 27.600615-88.709391 88.708368l0 687.493943c0 46.209438 50.307779 66.530252 88.709391 66.530252l114.106828-0.179079c14.730493 0 18.837021-10.091846 18.837021-20.240997 0-19.490913-8.930393-23.936155-22.059412-23.936155 0 0-87.330998 0-110.884436 0-23.556509 0-44.354184-18.687618-44.354184-44.354184 0-25.663496 0-288.302195 0-288.302195l0-377.013633c0-24.488741 10.004865-44.353161 44.354184-44.353161l842.73461 0c29.897937 0 44.352137 19.86442 44.352137 44.353161l0 665.315828c0 25.604144-17.540492 44.354184-44.352137 44.354184 0 0-95.951329 0-110.886483 0-14.938224 0-21.747303 6.055926-21.747303 25.543769 0 10.149151 11.990079 18.809391 21.747303 18.809391l110.886483 0C979.4519 875.670743 1022.074649 856.888981 1022.074649 809.140491L1022.074649 809.140491z" p-id="2249"></path><path d="M534.033317 254.434853l284.483216 284.48424c8.924253 10.193153 8.16803 20.665669-1.073448 29.907147-9.245572 9.244548-24.721031 9.546424-36.69883-1.51961l-224.533846-224.161363c0 0 0 609.153714 0 620.961644s-6.563486 26.955932-32.621978 26.955932c-26.056446 0-33.909297-12.625552-33.909297-26.955932s0-620.961644 0-620.961644l-221.773989 221.773989c-12.973476 12.269441-26.318412 17.358343-39.781028 3.898797-13.462616-13.465686-3.913123-24.965601 0.876973-31.524994l282.854113-282.857183C518.291798 248.242827 526.732028 248.616334 534.033317 254.434853L534.033317 254.434853z" p-id="2250"></path></svg>