<?xml version="1.0" standalone="no"?><!DOCTYPE svg PUBLIC "-//W3C//DTD SVG 1.1//EN" "http://www.w3.org/Graphics/SVG/1.1/DTD/svg11.dtd"><svg t="1616567880760" class="icon" viewBox="0 0 1024 1024" version="1.1" xmlns="http://www.w3.org/2000/svg" p-id="2501" xmlns:xlink="http://www.w3.org/1999/xlink" width="200" height="200"><defs><style type="text/css"></style></defs><path d="M830.04 854.5H676.7c-13.52 0-24.46-10.95-24.46-24.46s10.94-24.46 24.46-24.46h128.87V676.7c0-13.51 10.94-24.46 24.46-24.46 13.52 0 24.46 10.95 24.46 24.46v153.33c0.01 13.52-10.93 24.47-24.45 24.47zM830.04 371.77c-13.52 0-24.46-10.95-24.46-24.46V218.43H676.7c-13.52 0-24.46-10.95-24.46-24.46 0-13.51 10.94-24.46 24.46-24.46h153.33c13.52 0 24.46 10.95 24.46 24.46v153.34c0.01 13.51-10.93 24.46-24.45 24.46zM193.96 371.77c-13.52 0-24.46-10.95-24.46-24.46V193.96c0-13.51 10.94-24.46 24.46-24.46H347.3c13.52 0 24.46 10.95 24.46 24.46 0 13.51-10.94 24.46-24.46 24.46H218.43V347.3c0 13.52-10.94 24.47-24.47 24.47zM347.3 854.5H193.96c-13.52 0-24.46-10.95-24.46-24.46V676.7c0-13.51 10.94-24.46 24.46-24.46 13.52 0 24.46 10.95 24.46 24.46v128.87H347.3c13.52 0 24.46 10.95 24.46 24.46s-10.94 24.47-24.46 24.47zM491.86 694.24c-111.76 0-202.67-90.92-202.67-202.68 0-111.75 90.9-202.67 202.67-202.67s202.69 90.92 202.69 202.67c0 111.76-90.93 202.68-202.69 202.68z m0-368.65c-91.53 0-165.97 74.46-165.97 165.97 0 91.53 74.44 165.98 165.97 165.98s165.99-74.46 165.99-165.98c0-91.51-74.46-165.97-165.99-165.97z" p-id="2502"></path><path d="M730.65 757.07c-4.71 0-9.39-1.79-12.97-5.38L608.76 642.78c-7.17-7.17-7.17-18.78 0-25.95 7.17-7.17 18.78-7.17 25.95 0l108.92 108.92c7.17 7.17 7.17 18.78 0 25.95a18.3 18.3 0 0 1-12.98 5.37z" p-id="2503"></path></svg>