<?xml version="1.0" standalone="no"?><!DOCTYPE svg PUBLIC "-//W3C//DTD SVG 1.1//EN" "http://www.w3.org/Graphics/SVG/1.1/DTD/svg11.dtd"><svg t="1616568465441" class="icon" viewBox="0 0 1024 1024" version="1.1" xmlns="http://www.w3.org/2000/svg" p-id="18413" xmlns:xlink="http://www.w3.org/1999/xlink" width="200" height="200"><defs><style type="text/css"></style></defs><path d="M907.271587 0H116.728413a116.728413 116.728413 0 0 0-116.728413 116.728413v790.543174a116.728413 116.728413 0 0 0 116.728413 116.728413h790.543174a116.728413 116.728413 0 0 0 116.728413-116.728413V116.728413a116.728413 116.728413 0 0 0-116.728413-116.728413zM253.008834 236.666857h517.982332a32.975777 32.975777 0 1 1 0 65.659732H253.008834a32.975777 32.975777 0 0 1 0-65.659732z m194.644629 603.777714H250.090624a29.182103 29.182103 0 0 1 0-59.823311h197.562839z m0-181.804503H250.090624a29.182103 29.182103 0 0 1 0-59.823311h197.562839z m0-181.512681H250.090624a29.182103 29.182103 0 0 1 0-59.823312h197.562839z m342.889712 374.698204a24.804788 24.804788 0 0 1-10.213736 2.334569 23.637504 23.637504 0 0 1-21.302936-13.423768l-34.14306-70.328868 42.60587-20.719294 34.143061 70.62069a23.345683 23.345683 0 0 1-11.089199 31.516671z m-142.408664-114.977486a156.707894 156.707894 0 1 1 156.416073-156.707894 156.707894 156.707894 0 0 1-156.416073 156.707894z m0-272.269023a116.728413 116.728413 0 1 0 116.728413 116.728413 116.728413 116.728413 0 0 0-116.728413-116.728413z" p-id="18414" fill="#8a8a8a"></path></svg>