<?xml version="1.0" standalone="no"?><!DOCTYPE svg PUBLIC "-//W3C//DTD SVG 1.1//EN" "http://www.w3.org/Graphics/SVG/1.1/DTD/svg11.dtd"><svg t="1616560461999" class="icon" viewBox="0 0 1024 1024" version="1.1" xmlns="http://www.w3.org/2000/svg" p-id="3940" xmlns:xlink="http://www.w3.org/1999/xlink" width="200" height="200"><defs><style type="text/css"></style></defs><path d="M1000.51225 330.678045L541.700859 9.593213a54.777245 54.777245 0 0 0-61.364584 0L21.396974 330.678045a55.224928 55.224928 0 0 0-12.79095 72.140961c11.57581 23.311507 19.666086 16.308462 55.097019 12.79095h31.977376v575.592768a26.285403 26.285403 0 0 0 31.977376 31.977376h733.529028A74.315422 74.315422 0 0 0 926.964286 959.32128v-95.932128l-159.886881 63.954752c-24.238851 11.319991-31.977376 6.971068-31.977376 0v-63.954752h-159.88688v-63.954752h159.88688v-63.954752c1.502937-13.974113 16.724168-6.203611 31.977376 0l159.886881 63.954752V415.705888h31.977376a75.30672 75.30672 0 0 0 54.649335-12.79095 51.771372 51.771372 0 0 0-13.078747-72.236893zM383.700645 724.639318a15.221231 15.221231 0 0 1-16.244507 10.520556h-127.909504a15.029367 15.029367 0 0 1-16.244507-10.456602v-42.242113a13.398521 13.398521 0 0 1 13.174678-10.48858 16.404394 16.404394 0 0 1 3.197738 0h128.101368a14.965412 14.965412 0 0 1 16.180553 10.424625v42.242114z m0-127.685663a15.285186 15.285186 0 0 1-16.244507 10.616489h-127.909504a14.997389 14.997389 0 0 1-16.244507-10.616489v-42.881661a13.430498 13.430498 0 0 1 13.174678-10.648466 16.404394 16.404394 0 0 1 3.197738 0h128.101368a14.997389 14.997389 0 0 1 16.180553 10.648466v42.881661z m0-127.525775a15.253208 15.253208 0 0 1-16.244507 10.680443h-127.909504a15.093321 15.093321 0 0 1-16.244507-10.616488v-42.945616a13.462475 13.462475 0 0 1 13.174678-10.616489 12.343267 12.343267 0 0 1 3.197738 0h128.101368a14.997389 14.997389 0 0 1 16.180553 10.616489v42.881661z m223.841632 255.211438a15.413095 15.413095 0 0 1-16.308462 10.520556h-127.909504a14.997389 14.997389 0 0 1-16.21253-10.456602v-42.242113a13.52643 13.52643 0 0 1 13.238634-10.48858 15.413095 15.413095 0 0 1 2.973896 0h127.909504a15.061344 15.061344 0 0 1 16.244507 10.424625v42.242114z m0-127.685663a15.47705 15.47705 0 0 1-16.308462 10.616489h-127.909504a14.965412 14.965412 0 0 1-16.21253-10.616489v-42.881661a13.590385 13.590385 0 0 1 13.238634-10.648466 15.413095 15.413095 0 0 1 2.973896 0h127.909504a15.093321 15.093321 0 0 1 16.244507 10.648466v42.881661z" p-id="3941"></path></svg>