<?xml version="1.0" standalone="no"?><!DOCTYPE svg PUBLIC "-//W3C//DTD SVG 1.1//EN" "http://www.w3.org/Graphics/SVG/1.1/DTD/svg11.dtd"><svg t="1620697406911" class="icon" viewBox="0 0 1024 1024" version="1.1" xmlns="http://www.w3.org/2000/svg" p-id="3646" xmlns:xlink="http://www.w3.org/1999/xlink" width="200" height="200"><defs><style type="text/css"></style></defs><path d="M275.2 313.6h313.6c25.6 0 38.4-12.8 38.4-38.4 0-25.6-12.8-38.4-38.4-38.4H275.2c-25.6 0-38.4 12.8-38.4 38.4 0 25.6 12.8 38.4 38.4 38.4zM275.2 550.4h313.6c25.6 0 38.4-12.8 38.4-38.4s-12.8-38.4-38.4-38.4H275.2c-25.6 0-38.4 12.8-38.4 38.4s12.8 38.4 38.4 38.4zM275.2 787.2h313.6c25.6 0 38.4-12.8 38.4-38.4 0-25.6-12.8-38.4-38.4-38.4H275.2c-25.6 0-38.4 12.8-38.4 38.4 0 25.6 12.8 38.4 38.4 38.4z" p-id="3647" fill="#707070"></path><path d="M979.2 947.2h-32V268.8c0-19.2-6.4-32-32-32h-12.8c-25.6 0-38.4 12.8-32 38.4v672h-83.2V64c0-32-25.6-64-64-64H140.8c-32 0-64 25.6-64 64v883.2H38.4c-25.6 0-38.4 12.8-38.4 38.4 0 25.6 12.8 38.4 38.4 38.4h940.8c25.6 0 38.4-12.8 38.4-38.4 0-25.6-12.8-38.4-38.4-38.4z m-268.8 0H160V83.2h550.4v864z" p-id="3648" fill="#707070"></path></svg>