<?xml version="1.0" standalone="no"?><!DOCTYPE svg PUBLIC "-//W3C//DTD SVG 1.1//EN" "http://www.w3.org/Graphics/SVG/1.1/DTD/svg11.dtd"><svg t="1620697424914" class="icon" viewBox="0 0 1325 1024" version="1.1" xmlns="http://www.w3.org/2000/svg" p-id="4024" xmlns:xlink="http://www.w3.org/1999/xlink" width="258.7890625" height="200"><defs><style type="text/css"></style></defs><path d="M1204.705882 60.235294a60.235294 60.235294 0 0 1 60.235294 60.235294v783.058824a60.235294 60.235294 0 0 1-60.235294 60.235294H120.470588a60.235294 60.235294 0 0 1-60.235294-60.235294V120.470588a60.235294 60.235294 0 0 1 60.235294-60.235294h1084.235294m0-60.235294H120.470588a120.470588 120.470588 0 0 0-120.470588 120.470588v783.058824a120.470588 120.470588 0 0 0 120.470588 120.470588h1084.235294a120.470588 120.470588 0 0 0 120.470589-120.470588V120.470588a120.470588 120.470588 0 0 0-120.470589-120.470588z" p-id="4025" fill="#707070"></path><path d="M205.703529 188.235294m-76.498823 0a76.498824 76.498824 0 1 0 152.997647 0 76.498824 76.498824 0 1 0-152.997647 0Z" p-id="4026" fill="#707070"></path><path d="M599.943529 787.576471h-60.235294l-115.049411-177.091765a221.665882 221.665882 0 0 1-13.251765-21.985882 391.529412 391.529412 0 0 1 0 43.369411v155.708236h-54.512941v-273.468236H421.647059l111.435294 171.971765q11.444706 17.167059 13.552941 21.684706a271.058824 271.058824 0 0 1-1.505882-37.948235v-155.708236h55.115294zM646.324706 654.456471a147.275294 147.275294 0 0 1 37.647059-104.508236A128 128 0 0 1 783.058824 509.590588a122.277647 122.277647 0 0 1 94.268235 38.851765 142.757647 142.757647 0 0 1 35.538823 100.291765A146.070588 146.070588 0 0 1 875.821176 752.941176a126.795294 126.795294 0 0 1-97.28 39.755295A124.988235 124.988235 0 0 1 683.068235 752.941176a137.938824 137.938824 0 0 1-36.743529-98.484705z m60.235294-3.312942a106.616471 106.616471 0 0 0 19.275294 65.355295 62.945882 62.945882 0 0 0 52.705882 25.298823 63.548235 63.548235 0 0 0 53.308236-24.395294 100.894118 100.894118 0 0 0 19.275294-65.054118 109.327059 109.327059 0 0 0-18.672941-67.463529 60.235294 60.235294 0 0 0-52.10353-24.997647 63.849412 63.849412 0 0 0-53.910588 25.6 103.303529 103.303529 0 0 0-18.974118 65.65647zM930.032941 761.976471a26.503529 26.503529 0 0 1 9.938824-21.684706 35.84 35.84 0 0 1 24.094117-8.734118 35.237647 35.237647 0 0 1 23.792942 8.734118 30.117647 30.117647 0 0 1 0 43.670588 37.647059 37.647059 0 0 1-24.696471 8.131765 34.635294 34.635294 0 0 1-23.491765-9.035294 27.708235 27.708235 0 0 1-9.637647-21.082353zM1309.515294 315.030588H31.322353v60.235294h1278.192941v-60.235294z" p-id="4027" fill="#707070"></path></svg>