<?xml version="1.0" standalone="no"?><!DOCTYPE svg PUBLIC "-//W3C//DTD SVG 1.1//EN" "http://www.w3.org/Graphics/SVG/1.1/DTD/svg11.dtd"><svg t="1617364205677" class="icon" viewBox="0 0 1024 1024" version="1.1" xmlns="http://www.w3.org/2000/svg" p-id="8167" xmlns:xlink="http://www.w3.org/1999/xlink" width="200" height="200"><defs><style type="text/css"></style></defs><path d="M821.7 264.2l-299-156.6c-6.7-3.5-14.7-3.5-21.3 0l-299 156.6c-7.6 4-12.3 11.8-12.3 20.4v193.8c0 63.4 15 126.9 43.4 183.6s70.2 106.7 120.9 144.8l96.5 72.3c17.8 13.3 39 20.4 61.2 20.4 22.2 0 43.4-7 61.2-20.4l96.5-72.3c50.7-38 92.6-88.1 120.9-144.8S834 541.7 834 478.3V284.6c0-8.6-4.8-16.5-12.3-20.4zM788 478.3c0 56.3-13.3 112.6-38.5 163s-62.3 94.8-107.4 128.5l-96.5 72.3c-19.8 14.8-47.5 14.8-67.3 0l-96.5-72.3c-45.1-33.7-82.2-78.2-107.4-128.5S236 534.6 236 478.3V298.5L512 154l276 144.5v179.8z" p-id="8168"></path><path d="M417.1 490.8c-9-9-23.5-9-32.5 0s-9 23.5 0 32.5l91.4 91.5c4.3 4.3 10.2 6.7 16.3 6.7 6.1 0 12-2.4 16.3-6.7l173-173c9-9 9-23.5 0-32.5s-23.5-9-32.5 0L492.2 566l-75.1-75.2z" p-id="8169"></path></svg>