<?xml version="1.0" standalone="no"?><!DOCTYPE svg PUBLIC "-//W3C//DTD SVG 1.1//EN" "http://www.w3.org/Graphics/SVG/1.1/DTD/svg11.dtd"><svg t="1616568616588" class="icon" viewBox="0 0 1024 1024" version="1.1" xmlns="http://www.w3.org/2000/svg" p-id="21118" xmlns:xlink="http://www.w3.org/1999/xlink" width="200" height="200"><defs><style type="text/css"></style></defs><path d="M597.333333 398.222222h-341.333333a28.444444 28.444444 0 0 0 0 56.888889h341.333333a28.444444 28.444444 0 0 0 0-56.888889z m-113.777777 227.555556h-227.555556a28.444444 28.444444 0 0 0 0 56.888889h227.555556a28.444444 28.444444 0 0 0 0-56.888889z m227.555555-455.111111h-568.888889A85.333333 85.333333 0 0 0 56.888889 256v625.777778A85.333333 85.333333 0 0 0 142.222222 967.111111h568.888889a85.333333 85.333333 0 0 0 85.333333-85.333333v-625.777778A85.333333 85.333333 0 0 0 711.111111 170.666667z m28.444445 691.2a48.355556 48.355556 0 0 1-48.355556 48.355555H162.702222a48.924444 48.924444 0 0 1-48.924444-48.924444V276.48A48.924444 48.924444 0 0 1 162.702222 227.555556h527.928889a48.924444 48.924444 0 0 1 48.924445 48.924444zM853.333333 56.888889H312.888889a28.444444 28.444444 0 0 0 0 56.888889H853.333333a56.888889 56.888889 0 0 1 56.888889 56.888889v654.222222a28.444444 28.444444 0 0 0 56.888889 0V170.666667a113.777778 113.777778 0 0 0-113.777778-113.777778z" fill="#252B3A" p-id="21119"></path></svg>