<?xml version="1.0" standalone="no"?><!DOCTYPE svg PUBLIC "-//W3C//DTD SVG 1.1//EN" "http://www.w3.org/Graphics/SVG/1.1/DTD/svg11.dtd"><svg t="1617364211036" class="icon" viewBox="0 0 1024 1024" version="1.1" xmlns="http://www.w3.org/2000/svg" p-id="8312" xmlns:xlink="http://www.w3.org/1999/xlink" width="200" height="200"><defs><style type="text/css"></style></defs><path d="M777 128H247c-30.3 0-55 24.7-55 55v658c0 30.3 24.7 55 55 55h530c30.3 0 55-24.7 55-55V183c0-30.3-24.7-55-55-55z m9 713c0 5-4 9-9 9H247c-5 0-9-4-9-9V183c0-5 4-9 9-9h530c5 0 9 4 9 9v658z" p-id="8313"></path><path d="M705.2 711.4H318.8c-12.7 0-23 10.3-23 23s10.3 23 23 23h386.3c12.7 0 23-10.3 23-23s-10.2-23-22.9-23zM481.5 495.2L629 642.7c4.5 4.5 10.4 6.7 16.3 6.7s11.8-2.2 16.3-6.7l50.2-50.2c9-9 9-23.5 0-32.5L564.2 412.5c16.3-47.5 4.4-100.8-31.8-137-39.8-39.8-100.6-50.2-151.4-25.9-6.7 3.2-11.5 9.5-12.7 16.9-1.3 7.4 1.1 14.9 6.4 20.1l43.5 43.5-19.1 19.1-43.5-43.5c-5.3-5.3-12.8-7.7-20.1-6.4-7.4 1.3-13.6 6-16.9 12.7-24.3 50.7-13.9 111.6 25.9 151.4 36.2 36.2 89.5 48.1 137 31.8zM351.6 366.8l31.2 31.2c9 9 23.5 9 32.5 0l51.6-51.6c9-9 9-23.5 0-32.5l-31.2-31.2c23.4-0.7 46.8 8.1 64.1 25.4 26.3 26.3 33 66.4 16.6 99.7-4.3 8.8-2.6 19.4 4.4 26.4l142.1 142.1-17.7 17.7-142.1-142.1c-4.4-4.4-10.3-6.7-16.3-6.7-3.4 0-6.9 0.8-10.1 2.4-33.3 16.4-73.4 9.7-99.7-16.6a87.26 87.26 0 0 1-25.4-64.2z" p-id="8314"></path></svg>