<?xml version="1.0" standalone="no"?><!DOCTYPE svg PUBLIC "-//W3C//DTD SVG 1.1//EN" "http://www.w3.org/Graphics/SVG/1.1/DTD/svg11.dtd"><svg t="1616560502217" class="icon" viewBox="0 0 1024 1024" version="1.1" xmlns="http://www.w3.org/2000/svg" p-id="4069" xmlns:xlink="http://www.w3.org/1999/xlink" width="200" height="200"><defs><style type="text/css"></style></defs><path d="M811.97 111.23H215.26c-63.98 0-116.03 50.65-116.03 112.9v580.6c0 62.25 52.05 112.9 116.03 112.9h596.71c63.98 0 116.03-50.65 116.03-112.9v-580.6c0-62.26-52.06-112.9-116.03-112.9z m-596.71 80.64h596.71c18.28 0 33.15 14.47 33.15 32.26v95.45H598.01c-10.22 0-20.02 4.11-27.18 11.4l-65.02 66.19-66.48-64.79a38.091 38.091 0 0 0-26.59-10.81H182.11v-97.43c0-17.8 14.87-32.27 33.15-32.27z m596.71 645.11H215.26c-18.28 0-33.15-14.47-33.15-32.26V397.75h215.13l82.57 80.46c7.4 7.22 17 10.81 26.58 10.81 9.87 0 19.72-3.81 27.18-11.4l80.42-81.86h231.13v408.96c0 17.79-14.87 32.26-33.15 32.26z" fill="#040000" p-id="4070"></path><path d="M511.95 593.37c-39.39 0-71.43 32.04-71.43 71.43s32.04 71.43 71.43 71.43c39.39 0 71.43-32.04 71.43-71.43s-32.04-71.43-71.43-71.43z m0 85.72c-7.88 0-14.29-6.41-14.29-14.29 0-7.88 6.41-14.29 14.29-14.29 7.87 0 14.28 6.41 14.28 14.29 0 7.88-6.41 14.29-14.28 14.29z" fill="#040000" p-id="4071"></path></svg>