<?xml version="1.0" standalone="no"?><!DOCTYPE svg PUBLIC "-//W3C//DTD SVG 1.1//EN" "http://www.w3.org/Graphics/SVG/1.1/DTD/svg11.dtd"><svg t="1616568404716" class="icon" viewBox="0 0 1024 1024" version="1.1" xmlns="http://www.w3.org/2000/svg" p-id="17088" xmlns:xlink="http://www.w3.org/1999/xlink" width="200" height="200"><defs><style type="text/css"></style></defs><path d="M896 651.636364a34.909091 34.909091 0 0 0 34.909091-34.909091V139.636364a46.545455 46.545455 0 0 0-46.545455-46.545455h-139.636363V46.545455a46.545455 46.545455 0 0 0-46.545455-46.545455H325.818182a46.545455 46.545455 0 0 0-46.545455 46.545455v46.545454H139.636364a46.545455 46.545455 0 0 0-46.545455 46.545455v837.818181a46.545455 46.545455 0 0 0 46.545455 46.545455h744.727272a46.545455 46.545455 0 0 0 46.545455-46.545455v-151.272727a34.909091 34.909091 0 0 0-69.818182 0V954.181818H162.909091V162.909091h116.363636v46.545454a46.545455 46.545455 0 0 0 46.545455 46.545455h372.363636a46.545455 46.545455 0 0 0 46.545455-46.545455V162.909091h116.363636v453.818182a34.909091 34.909091 0 0 0 34.909091 34.909091zM674.909091 186.181818H349.090909V69.818182h325.818182z m-69.818182 527.127273H302.545455a34.909091 34.909091 0 0 0 0 69.818182h302.545454a151.272727 151.272727 0 0 0 0-302.545455h-174.545454l40.494545-40.494545a34.909091 34.909091 0 1 0-49.338182-49.338182L325.818182 488.727273l-10.938182 11.869091v30.487272l107.287273 107.287273a34.909091 34.909091 0 1 0 49.338182-49.338182l-37.701819-37.701818H605.090909a81.454545 81.454545 0 1 1 0 162.909091z" p-id="17089"></path></svg>