<?xml version="1.0" standalone="no"?><!DOCTYPE svg PUBLIC "-//W3C//DTD SVG 1.1//EN" "http://www.w3.org/Graphics/SVG/1.1/DTD/svg11.dtd"><svg t="1616568624558" class="icon" viewBox="0 0 1024 1024" version="1.1" xmlns="http://www.w3.org/2000/svg" p-id="21262" xmlns:xlink="http://www.w3.org/1999/xlink" width="200" height="200"><defs><style type="text/css"></style></defs><path d="M832 160c16.954 0 32.986 6.696 45.145 18.855C889.304 191.014 896 207.046 896 224v416c0 16.954-6.696 32.986-18.855 45.145C864.986 697.304 848.954 704 832 704H192c-16.954 0-32.986-6.696-45.145-18.855C134.696 672.986 128 656.954 128 640V224c0-16.954 6.696-32.986 18.855-45.145C159.014 166.696 175.046 160 192 160h640m0-64H192c-70.4 0-128 57.6-128 128v416c0 70.4 57.6 128 128 128h640c70.4 0 128-57.6 128-128V224c0-70.4-57.6-128-128-128zM736 928H288c-17.6 0-32-14.4-32-32s14.4-32 32-32h448c17.6 0 32 14.4 32 32s-14.4 32-32 32z" p-id="21263"></path><path d="M662.51 361.255L534.745 233.49a31.865 31.865 0 0 0-4.491-3.725C525.067 226.139 518.773 224 512 224c-6.773 0-13.067 2.139-18.254 5.765a31.74 31.74 0 0 0-4.491 3.725L361.49 361.255c-12.445 12.445-12.445 32.81 0 45.255s32.81 12.445 45.255 0L480 333.255V608c0 17.6 14.4 32 32 32s32-14.4 32-32V333.255l73.255 73.255c12.445 12.445 32.81 12.445 45.255 0s12.445-32.81 0-45.255z" p-id="21264"></path></svg>