<?xml version="1.0" standalone="no"?><!DOCTYPE svg PUBLIC "-//W3C//DTD SVG 1.1//EN" "http://www.w3.org/Graphics/SVG/1.1/DTD/svg11.dtd"><svg t="1616568518004" class="icon" viewBox="0 0 1024 1024" version="1.1" xmlns="http://www.w3.org/2000/svg" p-id="19448" xmlns:xlink="http://www.w3.org/1999/xlink" width="200" height="200"><defs><style type="text/css"></style></defs><path d="M1023.998991 1023.998991H0V0h1023.998991zM78.769153 945.229838h866.460685V78.769153H78.769153z" fill="#2c2c2c" p-id="19449" data-spm-anchor-id="a313x.7781069.0.i36" class="selected"></path><path d="M196.922883 236.307459h630.153225v78.769154H196.922883zM196.922883 393.845766h315.076612v78.769153H196.922883z" fill="#cdcdcd" p-id="19450"></path><path d="M748.306955 1023.998991a275.692036 275.692036 0 1 1 194.941346-80.75069A273.882807 273.882807 0 0 1 748.306955 1023.998991z m0-472.614919c-108.578355 0-196.922883 88.344528-196.922883 196.922883s88.344528 196.922883 196.922883 196.922883 196.922883-88.344528 196.922883-196.922883-88.344528-196.922883-196.922883-196.922883z" fill="#cdcdcd" p-id="19451" data-spm-anchor-id="a313x.7781069.0.i37" class=""></path><path d="M708.922378 689.23009h78.769153v196.922883h-78.769153z" fill="#cdcdcd" p-id="19452"></path><path d="M661.279348 794.202294l-55.692253-55.692253L744.836189 599.260948l139.236786 139.249093-55.692253 55.692253-83.544533-83.544533-83.556841 83.544533z" fill="#bfbfbf" p-id="19453" data-spm-anchor-id="a313x.7781069.0.i34" class=""></path></svg>