<?xml version="1.0" standalone="no"?><!DOCTYPE svg PUBLIC "-//W3C//DTD SVG 1.1//EN" "http://www.w3.org/Graphics/SVG/1.1/DTD/svg11.dtd"><svg t="1617365599416" class="icon" viewBox="0 0 1024 1024" version="1.1" xmlns="http://www.w3.org/2000/svg" p-id="12228" xmlns:xlink="http://www.w3.org/1999/xlink" width="200" height="200"><defs><style type="text/css"></style></defs><path d="M672.2 393.2l-32.1-34.4-54.8 42.3c-9.5-5.8-19.6-10.2-30.1-13.1l-4-68.2-47-1.6-8.9 68.7c-10.6 2.5-20.9 6.5-30.6 12l-51-45.4-34.4 32.1 42.3 54.8c-5.8 9.5-10.2 19.6-13.1 30.1l-68.2 4-1.6 47 68.7 8.9c2.5 10.6 6.5 20.9 12 30.6L374 612l32.1 34.4 54.8-42.3c9.5 5.8 19.6 10.2 30.1 13.1l4 68.2 47 1.6 8.9-68.7c10.6-2.5 20.9-6.5 30.6-12l51 45.4 34.4-32.1-42.3-54.8c5.8-9.5 10.2-19.6 13.1-30.1l68.2-4 1.6-47-68.7-8.9c-2.5-10.6-6.5-20.9-12-30.6l45.4-51zM568.4 549.6c-26 25-67.3 24.2-92.2-1.8-25-26-24.2-67.3 1.8-92.2 26-25 67.3-24.2 92.2 1.8 24.9 25.9 24.1 67.2-1.8 92.2z" fill="#707070" p-id="12229"></path><path d="M303.2 542c-2-3.2-2.5-4.3-3.2-5.2-11.6-14.3-23.3-28.5-34.8-42.8-8.8-10.9-17.1-22.2-26-33-12.6-15.5-25.8-30.4-38.2-46.1-3.4-4.2-5.4-4.5-9.4-1.4-25.6 20.2-51.4 40.2-77.1 60.3-16 12.5-32.1 24.8-48 37.3-1.5 1.2-2.6 2.9-4.4 5.1 23.6 2.6 46 5.3 68.4 7.3 12.5 1.1 12.5 0.4 14 13.7 0.1 0.5 0.1 1 0.2 1.4 3.6 17.3 6.4 34.9 11 52 4.4 16.7 10 33.1 16.2 49.1 8.9 23 20.8 44.1 34.6 64.3 11.8 17.3 24.5 33.6 38.8 48.4 11.6 12.1 24.1 23.1 36.5 34.3 5 4.6 10.4 8.8 16 12.6 10.8 7.3 21.4 15.2 32.9 20.9 22.9 11.4 46 22.5 69.8 31.7 21.7 8.4 44.6 12.6 67.5 16.6 16.7 2.9 33.2 4.8 50 3.9 18-1 36.2 2.5 54.1-3.4 9.8-3.2 20.5-3.3 30.7-5.3 33.7-6.5 65.8-18.6 96.6-34.2 17.6-9 34.3-20.2 50.6-31.7 25.1-17.8 47.6-39.2 67.3-63.4 13.3-16.4 24.6-34.7 36.3-52.5 3.6-5.5 6.2-11.8 8.8-17.9 7.5-17.3 16.1-34.1 21.8-52.1 5.9-18.6 8.3-38.4 13.4-57.3 3.5-13 3.9-25.9 3.9-40.2-2.2 1.5-3.6 2.2-4.6 3.3-9.8 12.2-19.1 24.9-29.3 36.8-7.5 8.7-10.4 11.5-19.2 4.4-9.9-8-20-15.6-30.1-23.3-1.9-1.4-3.9-2.6-6.1-4.2-0.6 1.7-0.9 2.3-1 3-3.4 23.8-7.6 47.1-17.1 69.4-9.9 23-20.6 45.3-36.2 64.3-10.3 12.6-21 25-32.3 36.6-19.8 20.3-43 35.5-67.6 48.4-33.8 17.7-69.7 27.8-106.9 31.7-31.2 3.3-62.4 1-93.1-6-37.6-8.5-72.8-23.7-104.8-46.3-26.2-18.4-49.1-41-68.4-67.6-13.9-19.2-25.1-40.1-34.2-62.1-6.1-14.6-9.9-30.4-14.1-45.8-1.9-6.7-2.3-13.9-3.5-22.1 23.5 2.4 45.9 4.7 70.2 7.1z" fill="#707070" p-id="12230"></path><path d="M557.6 122.6c1.5 0.9 3 2.4 4.6 2.6 39.1 3.8 77 12.7 113 29.7 14.4 6.7 28.8 13.4 42.7 21 22.9 12.5 43.3 29 63.1 46.2 10.6 9.2 20.3 19.9 29.3 31 11.6 14.2 22.2 29.4 32.9 44.4 15.7 21.9 26.8 46.6 36.1 72.1 5.3 14.6 9.4 29.6 14.4 45.9 21.8-2.2 44.5-4.5 67.1-6.8 0.4 0.5 0.8 1.1 1.2 1.6-35.4 43.4-70.8 86.7-106.7 130.6-44.9-35.2-89.4-70-133.8-104.8 0.2-0.6 0.4-1.2 0.5-1.8 27.4-3.2 54.7-6.3 83.7-9.7-3.9-10.5-7.4-19.9-10.8-29.3-1.4-3.8-2.5-7.8-4.3-11.3-7.2-14.3-13.9-29-22.2-42.5-6.7-10.8-15.3-20.5-23.7-30-9.1-10.3-18.3-20.7-28.4-29.8-20.2-18.1-42.6-33-66.9-43.9-23.6-10.6-47.9-19.3-73.5-23.6-26.6-4.5-53.2-7.2-79.8-3.7-20.2 2.7-40.4 7.1-60.2 12.5-15.8 4.3-31.7 9.8-46.3 17.3-16.6 8.5-32.4 18.9-47.5 30.2-13.7 10.3-26.7 21.9-38.4 34.6-10.9 11.9-20.2 25.6-29.2 39.3-16.6 25.3-28.3 53.1-34.7 83.3-0.3 1.2-1.3 2.3-2.5 4.1-10-12.5-19.8-24.2-29.1-36.4-5.8-7.6-12-9.1-19.6-3.2-10.6 8.1-21 16.4-31.6 24.6-1.6 1.2-3.3 2.1-6.3 3.8 1.8-7.2 3-12.8 4.7-18.4 4.3-14.2 7.6-28.8 13.3-42.3 10.3-24.1 21.4-47.8 37.2-68.6 9-11.9 17.1-24.9 27-35.8 12.7-14 26.5-27.1 40.6-39.5 12.5-10.9 25.7-21.1 39.5-30.2 14.2-9.3 29-17.7 44.2-25 15.6-7.5 31.6-14.3 47.9-19.5 17.5-5.5 35.5-9 53.4-12.9 6.8-1.5 13.9-1.9 20.8-3.1 1.1-0.2 2.1-1.8 3.1-2.7h75.2z" fill="#707070" p-id="12231"></path><path d="M303.2 542c-24.3-2.4-46.7-4.7-70.4-7.1 1.3 8.2 1.7 15.4 3.5 22.1 4.2 15.4 8 31.2 14.1 45.8 9.1 22 20.3 42.9 34.2 62.1 19.3 26.6 42.1 49.2 68.4 67.6 32 22.5 67.2 37.8 104.8 46.3 30.7 7 61.8 9.3 93.1 6 37.3-3.9 73.1-14 106.9-31.7 24.6-12.9 47.8-28.1 67.6-48.4 11.3-11.6 21.9-24 32.3-36.6 15.7-19.1 26.4-41.3 36.2-64.3 9.6-22.2 13.7-45.6 17.1-69.4 0.1-0.7 0.4-1.3 1-3 2.2 1.5 4.2 2.7 6.1 4.2 10.1 7.7 20.3 15.3 30.1 23.3 8.8 7.1 11.7 4.3 19.2-4.4 10.2-11.8 19.5-24.5 29.3-36.8 0.9-1.2 2.4-1.8 4.6-3.3 0 14.3-0.4 27.2-3.9 40.2-5.1 18.9-7.5 38.7-13.4 57.3-5.7 17.9-14.3 34.8-21.8 52.1-2.7 6.1-5.2 12.4-8.8 17.9-11.8 17.8-23 36.1-36.3 52.5-19.7 24.2-42.2 45.7-67.3 63.4-16.3 11.5-33 22.8-50.6 31.7-30.7 15.6-62.9 27.7-96.6 34.2-10.2 2-20.9 2-30.7 5.3-18 5.9-36.1 2.4-54.1 3.4-16.8 0.9-33.3-1-50-3.9-22.9-4-45.8-8.2-67.5-16.6-23.7-9.2-46.9-20.4-69.8-31.7-11.5-5.7-22.1-13.6-32.9-20.9-5.6-3.8-10.9-8-16-12.6-12.3-11.2-24.9-22.2-36.5-34.3-14.3-14.9-27-31.1-38.8-48.4-13.8-20.2-25.7-41.3-34.6-64.3-6.2-16-11.7-32.4-16.2-49.1-4.5-17.1-7.4-34.6-11-52-0.1-0.5-0.1-1-0.2-1.4-1.5-13.2-1.5-12.6-14-13.7-22.4-1.9-44.8-4.7-68.4-7.3 1.9-2.2 3-4 4.4-5.1 16-12.5 32-24.8 48-37.3 25.7-20 51.5-40.1 77.1-60.3 3.9-3.1 6-2.9 9.4 1.4 12.4 15.6 25.6 30.6 38.2 46.1 8.9 10.8 17.2 22.1 26 33 11.5 14.4 23.2 28.6 34.8 42.8 0.9 0.9 1.4 2 3.4 5.2z" fill="#707070" p-id="12232"></path></svg>