<?xml version="1.0" standalone="no"?><!DOCTYPE svg PUBLIC "-//W3C//DTD SVG 1.1//EN" "http://www.w3.org/Graphics/SVG/1.1/DTD/svg11.dtd"><svg t="1616567864381" class="icon" viewBox="0 0 1024 1024" version="1.1" xmlns="http://www.w3.org/2000/svg" p-id="2111" xmlns:xlink="http://www.w3.org/1999/xlink" width="200" height="200"><defs><style type="text/css"></style></defs><path d="M223.163733 336.964267a26.282667 26.282667 0 0 1-52.497066 0V266.922667A96.256 96.256 0 0 1 266.922667 170.666667h70.0416a26.282667 26.282667 0 0 1 0 52.497066H266.922667c-24.200533 0-43.793067 19.592533-43.793067 43.793067v69.973333z m577.672534 0V266.922667c0-24.200533-19.592533-43.793067-43.793067-43.793067h-69.973333a26.282667 26.282667 0 0 1 0-52.497067h69.973333A96.256 96.256 0 0 1 853.333333 266.922667v70.0416a26.282667 26.282667 0 1 1-52.497066 0zM223.163733 687.035733v70.007467c0 24.200533 19.592533 43.793067 43.793067 43.793067h69.973333a26.282667 26.282667 0 1 1 0 52.497066h-69.973333A96.256 96.256 0 0 1 170.666667 757.077333v-70.0416a26.282667 26.282667 0 0 1 52.497066 0z m577.672534 0a26.282667 26.282667 0 1 1 52.497066 0v70.007467A96.256 96.256 0 0 1 757.077333 853.333333h-70.0416a26.282667 26.282667 0 0 1 0-52.497066h70.007467c24.200533 0 43.793067-19.592533 43.793067-43.793067v-69.973333zM301.943467 555.758933a26.282667 26.282667 0 0 1 0-52.497066h420.113066a26.282667 26.282667 0 0 1 0 52.497066H301.943467z" fill="#979797" p-id="2112"></path></svg>