<?xml version="1.0" standalone="no"?><!DOCTYPE svg PUBLIC "-//W3C//DTD SVG 1.1//EN" "http://www.w3.org/Graphics/SVG/1.1/DTD/svg11.dtd"><svg t="1617364191624" class="icon" viewBox="0 0 1024 1024" version="1.1" xmlns="http://www.w3.org/2000/svg" p-id="7878" xmlns:xlink="http://www.w3.org/1999/xlink" width="200" height="200"><defs><style type="text/css"></style></defs><path d="M503.808 768c0-56.32 21.504-107.52 56.32-146.432H241.152c-12.288 0-22.016-9.728-22.016-22.016v-29.696c0-12.288 9.728-22.016 22.016-22.016h395.264c8.192 0 15.36 4.608 18.944 11.776 20.992-6.656 43.52-10.752 67.072-10.752 64.512 0 122.88 28.16 162.816 73.216 9.216 10.752 26.624 4.096 26.624-10.24V125.952c0-29.184-23.552-52.736-52.736-52.736h-6.144c-19.456 0-38.4 10.24-47.104 27.648-9.728 19.456-30.208 32.256-53.248 32.256-19.968 0-37.376-9.728-48.128-24.576-15.872-21.504-39.936-35.328-66.56-35.328h-3.072c-28.672 0-56.32 12.288-73.216 35.328-10.752 14.848-28.672 24.576-48.128 24.576-18.432 0-35.328-8.704-46.08-22.016-18.432-22.528-44.032-37.888-73.216-37.888s-54.784 15.36-73.216 37.888c-10.752 13.312-27.648 22.016-46.08 22.016-23.04 0-43.008-13.312-53.248-32.256-9.216-17.408-27.648-27.648-47.104-27.648h-6.656c-29.184 0-52.736 23.552-52.736 52.736v772.096c0 29.184 23.552 52.736 52.736 52.736h6.656c19.456 0 38.4-10.24 47.104-27.648 9.728-19.456 30.208-32.256 53.248-32.256 18.432 0 35.328 8.704 46.08 22.016 18.432 22.528 44.032 37.888 73.216 37.888s54.784-15.36 73.216-37.888c10.752-13.312 27.648-22.016 46.08-22.016h1.024c11.776 0 19.456-11.776 14.336-22.528-15.872-29.696-25.088-64-25.088-100.352zM219.136 387.584c0-12.288 9.728-22.016 22.016-22.016h541.696c11.776 0 22.016 9.728 22.016 22.016v29.696c0 11.776-9.728 22.016-22.016 22.016H241.152c-11.776 0-22.016-9.728-22.016-22.016v-29.696z" fill="#0F1F3C" p-id="7879"></path><path d="M727.04 585.216c-100.864 0-182.784 81.92-182.784 182.784s81.92 182.784 182.784 182.784 182.784-81.92 182.784-182.784-81.92-182.784-182.784-182.784z m81.92 246.272l-17.92 18.432c-5.632 5.632-14.848 5.632-20.48 0l-70.656-70.144v-86.016c0-8.192 6.656-14.336 14.336-14.336h25.6c8.192 0 14.336 6.656 14.336 14.336v63.488l54.272 54.272c6.144 4.608 6.144 13.824 0.512 19.968z" fill="#0F1F3C" p-id="7880"></path></svg>