<?xml version="1.0" standalone="no"?><!DOCTYPE svg PUBLIC "-//W3C//DTD SVG 1.1//EN" "http://www.w3.org/Graphics/SVG/1.1/DTD/svg11.dtd"><svg t="1616560440855" class="icon" viewBox="0 0 1024 1024" version="1.1" xmlns="http://www.w3.org/2000/svg" p-id="3552" xmlns:xlink="http://www.w3.org/1999/xlink" width="200" height="200"><defs><style type="text/css"></style></defs><path d="M224.32 667.52a31.936 31.936 0 0 1 10.88-19.776l94.08-94.08a32 32 0 1 1 45.12 45.12l-41.28 41.28H512a32 32 0 1 1 0 64h-178.88l41.28 41.28a32 32 0 1 1-45.12 45.44l-96-96a31.968 31.968 0 0 1-8.96-27.232zM768 800.096h-128a32 32 0 1 1 0-64h96v-302.4l-224-139.84-224 140.16v78.08a32 32 0 1 1-64 0v-96a32 32 0 0 1 15.04-27.2l256-160a32 32 0 0 1 33.92 0l256 160a32 32 0 0 1 15.04 27.2v352a32 32 0 0 1-32 32z" p-id="3553"></path></svg>