<?xml version="1.0" standalone="no"?><!DOCTYPE svg PUBLIC "-//W3C//DTD SVG 1.1//EN" "http://www.w3.org/Graphics/SVG/1.1/DTD/svg11.dtd"><svg t="1616567874874" class="icon" viewBox="0 0 1024 1024" version="1.1" xmlns="http://www.w3.org/2000/svg" p-id="2369" xmlns:xlink="http://www.w3.org/1999/xlink" width="200" height="200"><defs><style type="text/css"></style></defs><path d="M426.595923 970.079129a54.604278 54.604278 0 0 0-53.751086-54.604279h-264.489473V108.355364h807.119486v174.904329a54.604278 54.604278 0 0 0 54.604279 53.751086 53.751086 53.751086 0 0 0 53.751086-52.897894V53.751086a53.751086 53.751086 0 0 0-53.751086-53.751086H53.751086a57.163854 57.163854 0 0 0-38.393633 15.357453 57.163854 57.163854 0 0 0-15.357453 38.393633v916.328043a57.163854 57.163854 0 0 0 15.357453 38.393633 57.163854 57.163854 0 0 0 38.393633 15.357453h314.827791a53.751086 53.751086 0 0 0 58.017046-53.751086z" p-id="2370"></path><path d="M682.82853 961.064424m42.230841-42.230842l196.071766-196.071765q42.230842-42.230842 84.461683 0l0 0q42.230842 42.230842 0 84.461683l-196.071765 196.071766q-42.230842 42.230842-84.461684 0l0 0q-42.230842-42.230842 0-84.461684Z" p-id="2371"></path><path d="M571.563716 679.76739m42.230842 42.230842l196.071765 196.071765q42.230842 42.230842 0 84.461684l0 0q-42.230842 42.230842-84.461683 0l-196.071766-196.071766q-42.230842-42.230842 0-84.461683l0 0q42.230842-42.230842 84.461684 0Z" p-id="2372"></path><path d="M708.149232 1020.417447m0-59.723429l0-476.08105q0-59.723429 59.723429-59.723429l0 0q59.723429 0 59.723429 59.723429l0 476.08105q0 59.723429-59.723429 59.723429l0 0q-59.723429 0-59.723429-59.723429Z" p-id="2373"></path></svg>