<?xml version="1.0" standalone="no"?><!DOCTYPE svg PUBLIC "-//W3C//DTD SVG 1.1//EN" "http://www.w3.org/Graphics/SVG/1.1/DTD/svg11.dtd"><svg t="1616553527847" class="icon" viewBox="0 0 1024 1024" version="1.1" xmlns="http://www.w3.org/2000/svg" p-id="1844" xmlns:xlink="http://www.w3.org/1999/xlink" width="200" height="200"><defs><style type="text/css"></style></defs><path d="M825.375826 515.898906c0 105.643971 0.066517 211.287943-0.0307 316.931914-0.040933 44.750432-9.33793 54.779114-55.715465 55.336831-68.998351 0.834018-138.017169 0.23025-207.025753 0.23025-89.454814 0.005117-178.914745 0.005117-268.36956-0.005117-6.81541 0-13.651287 0.250717-20.44623-0.13815-53.668795-3.075121-62.730425-12.725169-62.735542-66.542347-0.005117-205.327017-0.01535-410.648918 0.005117-615.975936 0.005117-48.117204 11.819517-60.427922 60.238605-60.494439 167.837146-0.225134 335.679408-0.220017 503.516554 0 41.787878 0.056283 50.429941 9.041163 50.501574 51.156508C825.493509 302.90711 825.375826 409.405566 825.375826 515.898906zM793.365912 517.265058c0-102.287433-0.665168-204.5851 0.491201-306.857183 0.271184-23.910218-5.592525-32.342497-31.058212-32.16853-161.947854 1.110318-323.911058 1.033568-485.858912 0.0614-24.513986-0.148384-31.90758 6.774477-31.789897 31.626163 0.931235 203.720382 0.874951 407.44588 0.071633 611.161145-0.097217 24.427002 7.306611 33.017898 32.050847 32.900215 161.952971-0.772618 323.911058-0.772618 485.864028 0.035817 22.81525 0.112567 31.134962-5.398091 30.807495-29.90696C792.577944 721.855274 793.365912 619.557608 793.365912 517.265058z" p-id="1845"></path><path d="M604.089902 660.117484c5.265058 78.807015-65.580413 153.259741-153.704892 148.966852-83.749723-4.077989-144.054844-63.866327-143.773427-151.085155 0.281417-87.587228 63.221626-150.788388 150.082287-150.29207C546.706401 508.218778 608.638625 578.603748 604.089902 660.117484zM455.082117 788.351571c62.970909 6.52376 130.296108-50.133173 129.160206-129.057872-1.048918-72.687473-55.608015-128.290371-128.269905-128.356888-73.695458-0.066517-128.848089 53.986029-129.119272 126.540469C326.571728 732.973807 380.731724 788.249238 455.082117 788.351571z" p-id="1846"></path><path d="M355.204637 237.045281c112.858482 0 225.44578 0 338.98478 0 0 9.573297 0 17.647409 0 27.143956-113.129666 0-225.01598 0-338.98478 0C355.204637 255.531824 355.204637 246.925578 355.204637 237.045281z" p-id="1847"></path><path d="M353.838485 350.287513c0-9.210013 0-16.777575 0-26.396922 112.863599 0 225.481597 0 340.202548 0 0.501434 8.099695 0.997751 16.148224 1.632219 26.396922C581.591885 350.287513 469.055754 350.287513 353.838485 350.287513z" p-id="1848"></path><path d="M694.680618 406.049028c0 9.849598 0 17.381342 0 26.662989-113.385499 0-225.998381 0-340.376515 0-0.429801-8.642063-0.828901-16.762225-1.320102-26.662989C467.131884 406.049028 579.754999 406.049028 694.680618 406.049028z" p-id="1849"></path><path d="M521.783081 488.018148c52.30776 0 104.625753-0.506551 156.90793 0.726568 5.699975 0.133034 11.164583 10.289632 16.736641 15.795173-5.884175 5.326458-11.619967 15.073722-17.678109 15.283506C624.418448 521.639814 570.371019 525.871304 521.783081 488.018148z" p-id="1850"></path><path d="M457.712087 573.052156c8.289012 10.248698 15.80029 15.457473 17.176675 21.960766 5.357158 25.36847 19.392195 34.757568 44.898816 30.909829 6.979144-1.054035 14.904872 4.159856 22.472433 6.52376-1.294519 5.602758-1.028452 9.235597-2.53787 10.258932-27.763074 18.865178-45.410483 39.091391-25.383821 75.910978 7.09171 13.042402-7.669895 16.163574-18.471194 9.972398-11.686484-6.702843-22.436616-15.032789-34.240783-23.096667-15.344906 10.146365-30.387928 20.093179-45.43095 30.034877-2.23087-1.248468-4.466857-2.496937-6.697726-3.745405 1.693619-9.864948 1.637336-20.466697 5.433908-29.441343 8.207145-19.381962 6.001859-33.237915-13.850837-44.018748-8.068995-4.379873-13.41592-13.774087-21.423515-22.41615 7.495928-4.32359 11.456233-8.104812 15.95379-8.928596 14.556938-2.665787 32.664848 0.225134 43.020996-7.541978C448.271823 612.210063 449.730075 594.081687 457.712087 573.052156zM496.496477 709.974357c-20.727647-28.412892-7.286144-46.986419 17.882776-63.293259-37.413121-4.87619-37.413121-4.87619-53.689262-42.386529-2.409954 33.882616-22.083566 43.374047-51.949593 42.580962 25.869905 14.075971 35.468785 32.117364 21.776565 61.952691C454.478349 681.709849 474.075211 692.572548 496.496477 709.974357z" p-id="1851"></path></svg>