<?xml version="1.0" standalone="no"?><!DOCTYPE svg PUBLIC "-//W3C//DTD SVG 1.1//EN" "http://www.w3.org/Graphics/SVG/1.1/DTD/svg11.dtd"><svg t="1616567908627" class="icon" viewBox="0 0 1024 1024" version="1.1" xmlns="http://www.w3.org/2000/svg" p-id="3286" xmlns:xlink="http://www.w3.org/1999/xlink" width="200" height="200"><defs><style type="text/css"></style></defs><path d="M927.2 724.18H96.8c-17.38 0-31.49-14.09-31.49-31.49V200.63c0-17.4 14.1-31.49 31.49-31.49h830.4c17.38 0 31.49 14.09 31.49 31.49V692.7c-0.01 17.39-14.11 31.48-31.49 31.48z m-798.91-62.97h767.43v-429.1H128.29v429.1z" p-id="3287"></path><path d="M199.62 309.81h13.92v273.71h-13.92zM680.71 309.81h13.92v273.71h-13.92zM392.01 309.81h23.2v273.71h-23.2zM326.1 309.81h41.76v273.71H326.1zM241.9 309.81h55.68v273.71H241.9zM435.78 309.81h41.76v273.71h-41.76zM496.54 309.81h23.2v273.71h-23.2zM555.33 309.81h18.56v273.71h-18.56zM597.66 309.81h13.92v273.71h-13.92zM630.16 309.81H658v273.71h-27.84zM810.47 309.81h13.92v273.71h-13.92zM725.56 309.81h13.92v273.71h-13.92zM763.15 309.81h27.84v273.71h-27.84zM928.51 854.86H95.5c-17.38 0-31.49-14.09-31.49-31.49s14.1-31.49 31.49-31.49h833.02c17.38 0 31.49 14.09 31.49 31.49-0.01 17.39-14.12 31.49-31.5 31.49z" p-id="3288"></path></svg>