<?xml version="1.0" standalone="no"?><!DOCTYPE svg PUBLIC "-//W3C//DTD SVG 1.1//EN" "http://www.w3.org/Graphics/SVG/1.1/DTD/svg11.dtd"><svg t="1616568629399" class="icon" viewBox="0 0 1024 1024" version="1.1" xmlns="http://www.w3.org/2000/svg" p-id="21407" xmlns:xlink="http://www.w3.org/1999/xlink" width="200" height="200"><defs><style type="text/css"></style></defs><path d="M514 805.76a296.83 296.83 0 1 1 209.89-86.94A294.89 294.89 0 0 1 514 805.76z m0-553.66c-141.62 0-256.83 115.21-256.83 256.83S372.38 765.76 514 765.76s256.83-115.21 256.83-256.83S655.62 252.1 514 252.1z" p-id="21408"></path><path d="M514 928.52a20 20 0 0 1-20-20V709.34a20 20 0 0 1 40 0v199.18a20 20 0 0 1-20 20z" p-id="21409"></path><path d="M913.59 528.93H714.41a20 20 0 0 1 0-40h199.18a20 20 0 1 1 0 40z" p-id="21410"></path><path d="M514 328.52a20 20 0 0 1-20-20V109.34a20 20 0 0 1 40 0v199.18a20 20 0 0 1-20 20z" p-id="21411"></path><path d="M313.59 528.93H114.41a20 20 0 0 1 0-40h199.18a20 20 0 1 1 0 40z" p-id="21412"></path><path d="M514 508.93m-92.95 0a92.95 92.95 0 1 0 185.9 0 92.95 92.95 0 1 0-185.9 0Z" p-id="21413"></path><path d="M514 508.93m-83.42 0a83.42 83.42 0 1 0 166.84 0 83.42 83.42 0 1 0-166.84 0Z" p-id="21414"></path><path d="M514 592.85a83.92 83.92 0 1 1 83.92-83.92A84 84 0 0 1 514 592.85zM514 426a82.92 82.92 0 1 0 82.92 82.92A83 83 0 0 0 514 426z" p-id="21415"></path></svg>