<?xml version="1.0" standalone="no"?><!DOCTYPE svg PUBLIC "-//W3C//DTD SVG 1.1//EN" "http://www.w3.org/Graphics/SVG/1.1/DTD/svg11.dtd"><svg t="1616560407751" class="icon" viewBox="0 0 1024 1024" version="1.1" xmlns="http://www.w3.org/2000/svg" p-id="3420" xmlns:xlink="http://www.w3.org/1999/xlink" width="200" height="200"><defs><style type="text/css"></style></defs><path d="M675.8 542c-97.9 0-177.5 79.6-177.5 177.5S577.9 897 675.8 897s177.5-79.6 177.5-177.5S773.7 542 675.8 542z m0 343.6c-91.6 0-166.1-74.5-166.1-166.1s74.5-166.1 166.1-166.1 166.1 74.5 166.1 166.1-74.5 166.1-166.1 166.1z" p-id="3421"></path><path d="M662.4 396.1H324.1c-14 0-25.4 11.4-25.4 25.4s11.4 25.4 25.4 25.4h338.3c13.8 0 25.4-11.6 25.4-25.4 0-14-11.4-25.4-25.4-25.4z m0 39.4H324.1c-7.6 0-14-6.4-14-14s6.4-14 14-14h338.3c7.6 0 14 6.4 14 14s-6.4 14-14 14zM522.4 518.1H324.1c-14 0-25.4 11.4-25.4 25.4s11.4 25.4 25.4 25.4h198.3c13.8 0 25.4-11.6 25.4-25.4 0-14-11.4-25.4-25.4-25.4z m0 39.4H324.1c-7.6 0-14-6.4-14-14s6.4-14 14-14h198.3c7.6 0 14 6.4 14 14s-6.4 14-14 14zM324.1 324.9h338.3c14 0 25.3-11.4 25.3-25.4s-11.4-25.4-25.4-25.4H324c-6.8 0-13.2 2.7-18 7.6s-7.4 11.2-7.3 17.8c0 14 11.4 25.4 25.4 25.4z m-10-35.2c2.7-2.7 6.3-4.2 10-4.2v0.1h338.2c7.6 0 14 6.4 14 14s-6.4 14-14 14H324c-7.6 0-14-6.4-14-14.1 0-3.7 1.5-7.1 4.1-9.8z" p-id="3422"></path><path d="M803.4 502.3v63.2c0 3.1 2.6 5.7 5.7 5.7s5.7-2.6 5.7-5.7V169.7c0-23.6-19.2-42.8-42.8-42.8H216.7c-23.6 0-42.8 19.2-42.8 42.8v665.2c0 23.6 19.2 42.8 42.8 42.8H541c3.1 0 5.7-2.6 5.7-5.7s-2.6-5.7-5.7-5.7H216.7c-17.3 0-31.4-14.1-31.4-31.4V169.7c0-17.3 14.1-31.4 31.4-31.4H772c17.3 0 31.4 14.1 31.4 31.4v332.6z" p-id="3423"></path><path d="M714.1 776.5c-13 9.6-28.9 14.9-45 14.9h-0.2c-41.6 0-75.4-33.9-75.4-75.5 0-41.7 33.9-75.6 75.6-75.6 41.7 0 75.6 33.9 75.6 75.6 0 14-3.9 27.7-11.2 39.8l45.2 45.2-20 20-44.6-44.4z m44.4 29.4l4.7-4.8-43.9-44 2.7-3.7c7.7-11 11.8-23.9 11.8-37.3 0-35.7-29-64.7-64.7-64.7s-64.7 29-64.7 64.7 29 64.7 64.6 64.7c15.4 0 30.3-5.5 42-15.4l3.8-3.2 43.7 43.7z" p-id="3424"></path></svg>