<?xml version="1.0" standalone="no"?><!DOCTYPE svg PUBLIC "-//W3C//DTD SVG 1.1//EN" "http://www.w3.org/Graphics/SVG/1.1/DTD/svg11.dtd"><svg t="1620697433870" class="icon" viewBox="0 0 1048 1024" version="1.1" xmlns="http://www.w3.org/2000/svg" p-id="4214" xmlns:xlink="http://www.w3.org/1999/xlink" width="204.6875" height="200"><defs><style type="text/css"></style></defs><path d="M886.233574 0.02997H162.68636C72.726847 0.454543 0 72.706867 0 161.79226v701.194696C0.374623 951.747676 72.976596 1023.625377 162.68636 1024h723.522239c89.709765-0.374623 162.336712-72.252324 162.711335-161.038018V161.767285c1.848141-87.462026-68.256344-159.839224-156.59249-161.71234a162.211838 162.211838 0 0 0-6.09387 0zM178.420534 671.104963c0-66.083529 54.095587-119.629669 120.828464-119.62967s120.828464 53.54614 120.828463 119.62967c0 66.058554-54.095587 119.629669-120.828463 119.629669s-120.828464-53.571115-120.828464-119.629669z m141.582588-218.405315c-15.4095 5.319649-15.4095 10.614323-31.468347 10.614323a44.455284 44.455284 0 0 1-31.468348-10.614323L174.074905 369.208628a34.215584 34.215584 0 0 1 0-51.697999 35.06473 35.06473 0 0 1 52.197497 0l52.247446 51.697999 115.134191-113.985347c16.083822-7.966986 36.837946-7.966986 68.306294 6.618343a34.215584 34.215584 0 0 1 0 51.697999l-141.932236 139.160025z m534.762104 249.19934H513.458533a35.963825 35.963825 0 0 1-35.464328-36.463323 33.391413 33.391413 0 0 1 36.812971-36.463323l339.95805 0.024975h1.348644a35.963825 35.963825 0 0 1 35.464328 36.463323 33.391413 33.391413 0 0 1-36.812972 36.463323z m-555.516228-78.196345a38.711062 38.711062 0 0 1 42.18257 41.757997 41.283475 41.283475 0 0 1-40.833927 41.733023h-1.348643a38.711062 38.711062 0 0 1-42.182571-41.733023 38.561213 38.561213 0 0 1 42.182571-41.757997z m215.558178-306.192014H856.138845a35.963825 35.963825 0 0 1 35.464328 36.463323 33.391413 33.391413 0 0 1-36.812972 36.463323l-339.95805-0.024975a33.216589 33.216589 0 0 1-36.812971-36.463323 33.391413 33.391413 0 0 1 36.812971-36.463323z" p-id="4215" fill="#707070"></path></svg>