<?xml version="1.0" standalone="no"?><!DOCTYPE svg PUBLIC "-//W3C//DTD SVG 1.1//EN" "http://www.w3.org/Graphics/SVG/1.1/DTD/svg11.dtd"><svg t="1616560448907" class="icon" viewBox="0 0 1024 1024" version="1.1" xmlns="http://www.w3.org/2000/svg" p-id="3681" xmlns:xlink="http://www.w3.org/1999/xlink" width="200" height="200"><defs><style type="text/css"></style></defs><path d="M759.3 380H272.6c-36.3 0-65.8 28.5-65.8 63.7v285c0 35.2 29.5 63.7 65.8 63.7h486.8c36.3 0 65.8-28.5 65.8-63.7v-285c0-35.2-29.5-63.7-65.9-63.7z m11.5 348.8c0 6-5.2 11-11.4 11H272.6c-6.2 0-11.4-5.1-11.4-11v-285c0-6 5.2-11 11.4-11h486.8c6.2 0 11.4 5.1 11.4 11v285zM318.4 354.4h395c13.4 0 24.3-10.9 24.3-24.4 0-13.5-10.9-24.4-24.3-24.4h-395c-13.4 0-24.3 10.9-24.3 24.4 0 13.4 10.9 24.4 24.3 24.4zM366.3 276.4h299.3c13.4 0 24.3-10.9 24.3-24.4s-10.9-24.4-24.3-24.4H366.3c-13.4 0-24.3 10.9-24.3 24.4s10.8 24.4 24.3 24.4z" p-id="3682"></path><path d="M656.5 469.4c-10.4-8.5-25.8-6.8-34.2 3.6l-129 160.9-87.7-69.3c-10.6-8.3-25.8-6.5-34.1 4.1s-6.5 26 4.1 34.3l106.5 84.3c4.5 3.5 9.7 5.2 15 5.2 7.1 0 14.1-3.1 18.9-9.1l144.2-179.6c8.5-10.4 6.8-25.9-3.7-34.4z" p-id="3683"></path></svg>