<?xml version="1.0" standalone="no"?><!DOCTYPE svg PUBLIC "-//W3C//DTD SVG 1.1//EN" "http://www.w3.org/Graphics/SVG/1.1/DTD/svg11.dtd"><svg t="1616568392003" class="icon" viewBox="0 0 1024 1024" version="1.1" xmlns="http://www.w3.org/2000/svg" p-id="16829" xmlns:xlink="http://www.w3.org/1999/xlink" width="200" height="200"><defs><style type="text/css"></style></defs><path d="M369.131713 535.535899c10.315006 60.210977 57.812203 107.707774 118.02358 118.022781l0-48.935622c-33.823867-8.853997-60.211577-35.263092-68.847122-69.063975L369.131713 535.559083 369.131713 535.535899zM535.131365 653.580464c60.211976-10.336992 107.708773-57.811604 118.02378-118.021781l-48.935622 0c-8.853997 33.823068-35.263092 60.209978-69.063975 69.063975l0 48.957607L535.131365 653.580265zM653.17693 487.559027c-10.336992-60.211577-57.811604-107.708773-118.021781-118.02358l0 49.176458c33.824067 8.635545 60.209978 35.023254 69.063975 68.847122L653.17693 487.559027zM487.155493 369.535247c-60.211577 10.315006-107.708773 57.812203-118.02358 118.02358l49.176458 0c8.635545-33.823867 35.023254-60.211577 68.847122-68.847122L487.155493 369.535247zM248.469921 535.535899c11.274756 126.658725 112.026246 227.410216 238.685571 238.685571l0-53.014856c-97.393167-10.795681-174.876434-88.300932-185.671115-185.670715L248.469921 535.535899zM535.131365 774.22147c126.660724-11.275355 227.411215-112.026846 238.685571-238.685571l-52.752034 0c-11.057503 97.369783-88.53977 174.875035-185.909553 185.670715l0 53.014856L535.131365 774.22147zM773.816936 487.559027c-11.274356-126.659325-112.024847-227.410616-238.685571-238.925409l0 53.014456c97.371782 11.034519 174.876034 88.517785 185.911552 185.910952L773.816936 487.559027zM487.155493 248.633618c-126.659325 11.514593-227.410815 112.266084-238.685571 238.925409l53.014456 0c10.794681-97.393167 88.277948-174.876434 185.671115-185.910952L487.155493 248.633618zM128.047768 535.535899c11.994268 192.866836 166.239889 347.090872 359.107525 359.084741l0-48.217309c-166.480126-11.492208-299.376223-144.387705-310.891016-310.867432L128.047768 535.535899zM535.131365 894.620439c192.867636-11.993868 347.091872-166.240889 359.08574-359.084741l-48.217309 0c-11.492208 166.479727-144.387705 299.375224-310.868431 310.890416L535.131365 894.620439zM894.216905 487.559027c-11.993868-192.867636-166.217904-347.113257-359.08574-359.107525l0 47.976872c166.480726 11.75443 299.376223 144.650527 310.868431 311.130653L894.216905 487.559027zM487.155493 128.451302C294.287657 140.44577 140.042035 294.691191 128.047768 487.559027L176.264477 487.559027c11.514593-166.480126 144.650527-299.376223 310.891016-311.130653L487.155493 128.451302z" p-id="16830"></path></svg>