<?xml version="1.0" standalone="no"?><!DOCTYPE svg PUBLIC "-//W3C//DTD SVG 1.1//EN" "http://www.w3.org/Graphics/SVG/1.1/DTD/svg11.dtd"><svg t="1616567904351" class="icon" viewBox="0 0 1024 1024" version="1.1" xmlns="http://www.w3.org/2000/svg" p-id="3155" xmlns:xlink="http://www.w3.org/1999/xlink" width="200" height="200"><defs><style type="text/css"></style></defs><path d="M777.82 290.34c-18.77 0-33.99-15.22-33.99-33.99V125.22H280.18v131.13c0 18.78-15.23 33.99-33.99 33.99s-33.99-15.22-33.99-33.99V91.23c0-18.78 15.23-33.99 33.99-33.99h531.63c18.77 0 33.99 15.22 33.99 33.99v165.12c0 18.78-15.23 33.99-33.99 33.99z" p-id="3156"></path><path d="M958.01 772.49H787.69c-18.77 0-33.99-15.22-33.99-33.99 0-18.78 15.23-33.99 33.99-33.99h136.33V290.34H99.99V704.5h143.14c18.77 0 33.99 15.22 33.99 33.99 0 18.78-15.23 33.99-33.99 33.99H65.99c-18.77 0-33.99-15.22-33.99-33.99V256.35c0-18.78 15.23-33.99 33.99-33.99H958c18.77 0 33.99 15.22 33.99 33.99V738.5c0.01 18.77-15.22 33.99-33.98 33.99z" p-id="3157"></path><path d="M777.75 966.77H246.12c-18.77 0-33.99-15.22-33.99-33.99V614.14c0-18.78 15.23-33.99 33.99-33.99h531.63c18.77 0 33.99 15.22 33.99 33.99v318.63c0 18.78-15.22 34-33.99 34z m-497.64-67.99h463.65V648.13H280.11v250.65zM367.35 435.92H246.12c-18.77 0-33.99-15.22-33.99-33.99 0-18.78 15.23-33.99 33.99-33.99h121.23c18.77 0 33.99 15.22 33.99 33.99s-15.22 33.99-33.99 33.99z" p-id="3158"></path></svg>