<?xml version="1.0" standalone="no"?><!DOCTYPE svg PUBLIC "-//W3C//DTD SVG 1.1//EN" "http://www.w3.org/Graphics/SVG/1.1/DTD/svg11.dtd"><svg t="1616683633068" class="icon" viewBox="0 0 1024 1024" version="1.1" xmlns="http://www.w3.org/2000/svg" p-id="5990" data-spm-anchor-id="a313x.7781069.0.i2" xmlns:xlink="http://www.w3.org/1999/xlink" width="200" height="200"><defs><style type="text/css"></style></defs><path d="M570.299733 716.8h-150.7328a85.333333 85.333333 0 0 0-156.4672 0h-24.405333A33.9968 33.9968 0 0 1 204.8 682.7008V307.2C204.8 288.324267 220.16 273.066667 239.172267 273.066667h409.122133C667.306667 273.066667 682.666667 288.187733 682.666667 307.541333V409.6h68.266666l68.266667 102.4v171.008c0 18.6368-15.189333 33.792-33.8944 33.792h-58.538667a85.333333 85.333333 0 0 0-156.4672 0zM682.666667 477.866667v102.4h34.133333v-102.4h-34.133333z m-307.2-170.666667l-102.4 136.533333h307.2v-68.266666h-204.8V307.2z m102.4 307.2l102.4-136.533333H273.066667v68.266666h204.8v68.266667z" fill="#8a8a8a" p-id="5991" data-spm-anchor-id="a313x.7781069.0.i1" class="selected"></path><path d="M341.333333 750.933333m-68.266666 0a68.266667 68.266667 0 1 0 136.533333 0 68.266667 68.266667 0 1 0-136.533333 0Z" fill="#8a8a8a" p-id="5992" data-spm-anchor-id="a313x.7781069.0.i4" class="selected"></path><path d="M648.533333 750.933333m-68.266666 0a68.266667 68.266667 0 1 0 136.533333 0 68.266667 68.266667 0 1 0-136.533333 0Z" fill="#8a8a8a" p-id="5993" data-spm-anchor-id="a313x.7781069.0.i3" class="selected"></path></svg>