<?xml version="1.0" standalone="no"?><!DOCTYPE svg PUBLIC "-//W3C//DTD SVG 1.1//EN" "http://www.w3.org/Graphics/SVG/1.1/DTD/svg11.dtd"><svg t="1620697395747" class="icon" viewBox="0 0 1024 1024" version="1.1" xmlns="http://www.w3.org/2000/svg" p-id="3458" xmlns:xlink="http://www.w3.org/1999/xlink" width="200" height="200"><defs><style type="text/css"></style></defs><path d="M770.327155 623.98808v-69.725059a9.122905 9.122905 0 0 0-9.16945-9.122905H262.842295a9.122905 9.122905 0 0 0-9.122905 9.122905v69.725059h109.707587c20.200718 0 36.584711 16.383993 36.58471 36.584711v326.842033a36.584711 36.584711 0 0 1-36.58471 36.584711H36.584943A36.584711 36.584711 0 0 1 0.000233 987.414824v-326.842033c0-20.200718 16.383993-36.584711 36.58471-36.584711h143.965026v-115.432675c0-20.200718 16.383993-36.538165 36.58471-36.538165h258.327156V400.011455H348.532438a36.584711 36.584711 0 0 1-36.584711-36.584711V36.584711c0-20.200718 16.383993-36.584711 36.584711-36.584711h326.842033c20.200718 0 36.584711 16.383993 36.584711 36.584711v326.842033a36.584711 36.584711 0 0 1-36.584711 36.584711h-126.836306v72.005785h258.28061c20.200718 0 36.584711 16.337447 36.584711 36.538165v115.432675h143.965025c20.200718 0 36.584711 16.383993 36.584711 36.584711v326.842033a36.584711 36.584711 0 0 1-36.584711 36.584711h-326.842033a36.584711 36.584711 0 0 1-36.584711-36.584711v-326.842033c0-20.200718 16.383993-36.584711 36.584711-36.584711h109.707586zM394.240054 73.122876a9.122905 9.122905 0 0 0-9.122905 9.16945v235.426802c0 5.026907 4.049453 9.122905 9.122905 9.122905h235.426802a9.122905 9.122905 0 0 0 9.122905-9.122905V82.292326a9.122905 9.122905 0 0 0-9.122905-9.16945H394.286599zM82.292559 697.157501a9.122905 9.122905 0 0 0-9.16945 9.122905v235.426802c0 5.073452 4.095998 9.16945 9.16945 9.169451h235.426802a9.122905 9.122905 0 0 0 9.122905-9.169451v-235.426802a9.122905 9.122905 0 0 0-9.122905-9.122905H82.292559z m623.98808 0a9.122905 9.122905 0 0 0-9.122905 9.122905v235.426802c0 5.073452 4.095998 9.16945 9.122905 9.169451h235.426802a9.122905 9.122905 0 0 0 9.16945-9.169451v-235.426802a9.122905 9.122905 0 0 0-9.16945-9.122905h-235.426802z" p-id="3459" fill="#707070"></path></svg>