<?xml version="1.0" standalone="no"?><!DOCTYPE svg PUBLIC "-//W3C//DTD SVG 1.1//EN" "http://www.w3.org/Graphics/SVG/1.1/DTD/svg11.dtd"><svg t="1616560381108" class="icon" viewBox="0 0 1024 1024" version="1.1" xmlns="http://www.w3.org/2000/svg" p-id="3029" xmlns:xlink="http://www.w3.org/1999/xlink" width="200" height="200"><defs><style type="text/css"></style></defs><path d="M684.463158 253.305263c32.336842-53.894737 13.473684-123.957895-43.11579-156.294737s-126.652632-13.473684-158.989473 43.11579l202.105263 113.178947zM148.210526 943.157895L134.736842 735.663158l202.105263 115.873684zM520.084211 196.715789L619.789474 253.305263c26.947368 16.168421 35.031579 51.2 18.863158 80.842105l-258.694737 441.936843c-16.168421 29.642105-53.894737 40.421053-80.842106 24.252631l-99.705263-56.589474c-26.947368-16.168421-35.031579-51.2-18.863158-80.842105l258.694737-441.936842c16.168421-29.642105 51.2-40.421053 80.842106-24.252632zM444.631579 862.315789h404.210526c21.557895 0 40.421053 18.863158 40.421053 40.421053s-18.863158 40.421053-40.421053 40.421053h-404.210526c-21.557895 0-40.421053-18.863158-40.421053-40.421053s18.863158-40.421053 40.421053-40.421053z" fill="#999999" p-id="3030"></path></svg>