<?xml version="1.0" standalone="no"?><!DOCTYPE svg PUBLIC "-//W3C//DTD SVG 1.1//EN" "http://www.w3.org/Graphics/SVG/1.1/DTD/svg11.dtd"><svg t="1616568409470" class="icon" viewBox="0 0 1024 1024" version="1.1" xmlns="http://www.w3.org/2000/svg" p-id="17223" xmlns:xlink="http://www.w3.org/1999/xlink" width="200" height="200"><defs><style type="text/css"></style></defs><path d="M409.6 273.066667v68.266666h-68.1984C322.7648 341.333333 307.2 356.6592 307.2 375.534933v341.1968C307.2 735.368533 322.525867 750.933333 341.4016 750.933333h341.1968c18.6368 0 34.2016-15.325867 34.2016-34.2016v-341.1968c0-18.6368-15.325867-34.2016-34.2016-34.2016H614.4V273.066667h102.6048C754.5856 273.066667 785.066667 303.616 785.066667 341.128533v410.0096A68.096 68.096 0 0 1 717.0048 819.2H306.9952A68.096 68.096 0 0 1 238.933333 751.138133V341.128533C238.933333 303.547733 269.482667 273.066667 306.9952 273.066667H409.6z" fill="#334356" p-id="17224"></path><path d="M341.333333 307.2c0-56.558933 46.045867-102.4 102.4-102.4h136.533334c56.558933 0 102.4 45.9776 102.4 102.4 0 56.558933-46.045867 102.4-102.4 102.4h-136.533334c-56.558933 0-102.4-45.9776-102.4-102.4z m68.266667 0c0 18.978133 15.1552 34.133333 33.792 34.133333h137.216A34.133333 34.133333 0 0 0 614.4 307.2c0-18.978133-15.1552-34.133333-33.792-34.133333h-137.216A34.133333 34.133333 0 0 0 409.6 307.2zM477.866667 682.666667h102.4c56.354133 0 102.4-45.841067 102.4-102.4 0-56.4224-45.841067-102.4-102.4-102.4h-136.533334v-34.133334l-102.4 68.266667 102.4 68.266667v-34.133334h136.465067a34.0992 34.0992 0 1 1 0 68.266667H477.866667a34.133333 34.133333 0 0 0 0 68.266667z" fill="#334356" p-id="17225"></path></svg>