<?xml version="1.0" standalone="no"?><!DOCTYPE svg PUBLIC "-//W3C//DTD SVG 1.1//EN" "http://www.w3.org/Graphics/SVG/1.1/DTD/svg11.dtd"><svg t="1617717473873" class="icon" viewBox="0 0 1024 1024" version="1.1" xmlns="http://www.w3.org/2000/svg" p-id="8399" xmlns:xlink="http://www.w3.org/1999/xlink" width="200" height="200"><defs><style type="text/css"></style></defs><path d="M693.1456 819.2a15.104 15.104 0 0 1-11.1104-4.9664l-63.0784-68.3008a18.2272 18.2272 0 0 1 0-24.1664 15.0528 15.0528 0 0 1 22.3232 0l51.8656 56.32 99.1744-107.52c6.144-6.656 16.0768-6.656 22.272 0 6.144 6.656 6.144 17.5104 0 24.1152l-110.2848 119.552a15.2064 15.2064 0 0 1-11.1616 4.9664z" p-id="8400"></path><path d="M207.4624 867.7888v-45.9776a301.2608 301.2608 0 0 1 271.872-299.7248h0.3584c9.3696-0.9216 18.8416-1.4336 28.3648-1.4336l4.3008 0.1536c33.6384-2.6624 84.6336-10.6496 111.2576-34.6112l13.056-10.24A208.384 208.384 0 0 0 716.8 311.5008 209.2032 209.2032 0 0 0 507.9552 102.4a209.2032 209.2032 0 0 0-208.7936 209.1008c0 64.4096 29.184 124.3136 80.1792 164.4544l13.0048 10.24-15.36 6.144A353.3824 353.3824 0 0 0 153.6 821.8112v72.9088c0 14.7968 12.032 26.88 26.9312 26.88h393.216a272.384 272.384 0 0 1-32.512-53.8112H207.36zM352.9728 311.5008A155.392 155.392 0 0 1 507.904 156.2112a155.3408 155.3408 0 0 1 0 310.6816 155.4432 155.4432 0 0 1-154.9824-155.392z" p-id="8401"></path><path d="M716.544 546.3552a170.6496 170.6496 0 0 1 170.6496 170.24 170.8544 170.8544 0 0 1-170.6496 170.6496 170.4448 170.4448 0 0 1 0-340.8384m0-34.4064A204.6464 204.6464 0 0 0 512 716.5952 204.9024 204.9024 0 0 0 716.544 921.6 205.1584 205.1584 0 0 0 921.6 716.5952 204.9536 204.9536 0 0 0 716.544 512z" p-id="8402"></path></svg>