<?xml version="1.0" standalone="no"?><!DOCTYPE svg PUBLIC "-//W3C//DTD SVG 1.1//EN" "http://www.w3.org/Graphics/SVG/1.1/DTD/svg11.dtd"><svg t="1620697379066" class="icon" viewBox="0 0 1024 1024" version="1.1" xmlns="http://www.w3.org/2000/svg" p-id="3266" xmlns:xlink="http://www.w3.org/1999/xlink" width="200" height="200"><defs><style type="text/css"></style></defs><path d="M696.888889 560.355556h116.622222v-110.933334l-34.133333-45.511111h-85.333334v156.444445h2.844445z m-5.688889-187.733334h93.866667c8.533333 0 17.066667 5.688889 22.755555 11.377778l36.977778 48.355556c2.844444 5.688889 5.688889 11.377778 5.688889 17.066666v116.622222c0 17.066667-11.377778 28.444444-28.444445 28.444445h-128c-17.066667 0-28.444444-11.377778-28.444444-28.444445v-164.977777c-2.844444-17.066667 11.377778-28.444444 25.6-28.444445z m5.688889 554.666667h116.622222v-110.933333l-34.133333-45.511112h-85.333334v156.444445h2.844445z m-5.688889-187.733333h93.866667c8.533333 0 17.066667 5.688889 22.755555 11.377777l36.977778 48.355556c2.844444 5.688889 5.688889 11.377778 5.688889 17.066667v116.622222c0 17.066667-11.377778 28.444444-28.444445 28.444444h-128c-17.066667 0-28.444444-11.377778-28.444444-28.444444V768c-2.844444-17.066667 11.377778-28.444444 25.6-28.444444zM233.244444 244.622222H369.777778V91.022222H233.244444v153.6zM227.555556 56.888889h147.911111c17.066667 0 28.444444 11.377778 28.444444 28.444444v164.977778c0 17.066667-11.377778 28.444444-28.444444 28.444445H227.555556c-17.066667 0-28.444444-11.377778-28.444445-28.444445V85.333333c0-17.066667 11.377778-28.444444 28.444445-28.444444z m56.888888 258.844444c0-8.533333 8.533333-17.066667 17.066667-17.066666s17.066667 8.533333 17.066667 17.066666v85.333334c0 8.533333-8.533333 17.066667-17.066667 17.066666s-17.066667-8.533333-17.066667-17.066666v-85.333334z m0 153.6c0-8.533333 8.533333-17.066667 17.066667-17.066666s17.066667 8.533333 17.066667 17.066666v85.333334c0 8.533333-8.533333 17.066667-17.066667 17.066666s-17.066667-8.533333-17.066667-17.066666v-85.333334z m0 153.6c0-8.533333 8.533333-17.066667 17.066667-17.066666s17.066667 8.533333 17.066667 17.066666v85.333334c0 8.533333-8.533333 17.066667-17.066667 17.066666s-17.066667-8.533333-17.066667-17.066666v-85.333334z m0 153.6c0-8.533333 8.533333-17.066667 17.066667-17.066666s17.066667 8.533333 17.066667 17.066666v39.822223c0 11.377778 5.688889 22.755556 14.222222 28.444444 5.688889 5.688889 8.533333 17.066667 0 22.755556s-17.066667 8.533333-22.755556 0c-14.222222-14.222222-22.755556-34.133333-22.755555-54.044445v-36.977778H284.444444z m102.4 113.777778c-8.533333 0-17.066667-8.533333-17.066666-17.066667s8.533333-17.066667 17.066666-17.066666h85.333334c8.533333 0 17.066667 8.533333 17.066666 17.066666s-8.533333 17.066667-17.066666 17.066667h-85.333334z m153.6 0c-8.533333 0-17.066667-8.533333-17.066666-17.066667s8.533333-17.066667 17.066666-17.066666h85.333334c8.533333 0 17.066667 8.533333 17.066666 17.066666s-8.533333 17.066667-17.066666 17.066667h-85.333334z m-238.933333-372.622222c-8.533333 0-17.066667-8.533333-17.066667-17.066667s8.533333-17.066667 17.066667-17.066666h113.777778c8.533333 0 17.066667 8.533333 17.066667 17.066666s-8.533333 17.066667-17.066667 17.066667h-113.777778z m199.111111 0c-8.533333 0-17.066667-8.533333-17.066666-17.066667s8.533333-17.066667 17.066666-17.066666h113.777778c8.533333 0 17.066667 8.533333 17.066667 17.066666s-8.533333 17.066667-17.066667 17.066667h-113.777778z" p-id="3267" fill="#707070"></path></svg>